<svg width="70" height="70" viewBox="0 0 70 70" fill="none" xmlns="http://www.w3.org/2000/svg">
<circle cx="35" cy="35" r="35" fill="#EBEBEB"/>
<path opacity="0.4" d="M54.32 31.88L52.36 40.24C50.68 47.46 47.36 50.38 41.12 49.78C40.12 49.7 39.04 49.52 37.88 49.24L34.52 48.44C26.18 46.46 23.6 42.34 25.56 33.98L27.52 25.6C27.92 23.9 28.4 22.42 29 21.2C31.34 16.36 35.32 15.06 42 16.64L45.34 17.42C53.72 19.38 56.28 23.52 54.32 31.88Z" fill="#3E58C9"/>
<path d="M41.12 49.7799C39.88 50.6199 38.32 51.3199 36.42 51.9399L33.26 52.9799C25.32 55.5399 21.14 53.3999 18.56 45.4599L16 37.56C13.44 29.62 15.56 25.42 23.5 22.86L26.66 21.82C27.48 21.56 28.26 21.34 29 21.2C28.4 22.42 27.92 23.9 27.52 25.6L25.56 33.98C23.6 42.34 26.18 46.4599 34.52 48.4399L37.88 49.24C39.04 49.52 40.12 49.6999 41.12 49.7799Z" fill="#3E58C9"/>
<path d="M45.98 32.02C45.86 32.02 45.74 32 45.6 31.98L35.9 29.52C35.1 29.32 34.62 28.5 34.82 27.7C35.02 26.9 35.84 26.42 36.64 26.62L46.34 29.08C47.14 29.28 47.62 30.1 47.42 30.9C47.26 31.56 46.64 32.02 45.98 32.02Z" fill="#3E58C9"/>
<path d="M40.12 38.78C40 38.78 39.88 38.76 39.74 38.74L33.92 37.26C33.12 37.06 32.64 36.24 32.84 35.44C33.04 34.64 33.86 34.16 34.66 34.36L40.48 35.84C41.28 36.04 41.76 36.86 41.56 37.66C41.4 38.34 40.8 38.78 40.12 38.78Z" fill="#3E58C9"/>
</svg>
